<svg xmlns="http://www.w3.org/2000/svg" xmlns:xlink="http://www.w3.org/1999/xlink" version="1.1" x="0px" y="0px" viewBox="0 0 100 125" enable-background="new 0 0 100 100" xml:space="preserve" style="fill: #3b566e"><path d="M33.861,51.187h-0.607l-0.045,0.045c-1.947,1.934-4.398,3.197-7.09,3.649l-0.436,0.075l1.943,1.113l-3.424,3.879  l2.412,10.811l-2.707,5.56l-2.705-5.56l2.412-10.811l-3.424-3.882l1.943-1.11l-0.438-0.075c-0.104-0.016-0.201-0.036-0.303-0.059  c-0.439-0.082-0.873-0.187-1.299-0.317c-2.059-0.614-3.932-1.73-5.486-3.273l-0.049-0.045h-0.604c-5.234,0-9.49,4.257-9.49,9.487  v17.417h38.881V60.674C43.348,55.443,39.096,51.187,33.861,51.187z"/><path d="M15.201,49.609c0.299,0.337,0.619,0.658,0.957,0.957c1.4,1.247,3.102,2.164,4.982,2.622c0.887,0.219,1.816,0.333,2.77,0.333  c6.43,0,11.664-5.23,11.664-11.662c0-2.956-1.105-5.657-2.924-7.715c-0.996-1.129-2.209-2.064-3.57-2.742  c-1.559-0.772-3.314-1.209-5.17-1.209c-6.432,0-11.666,5.234-11.666,11.666c0,2.927,1.082,5.605,2.873,7.654  C15.143,49.545,15.172,49.577,15.201,49.609z"/><path d="M59.434,79.984c3.432,0,6.225-2.794,6.225-6.227s-2.793-6.226-6.225-6.226c-3.436,0-6.23,2.793-6.23,6.226  S55.998,79.984,59.434,79.984z"/><path d="M64.75,78.747h-0.322l-0.025,0.025c-1.041,1.029-2.352,1.704-3.789,1.949l-0.219,0.035l1.029,0.592l-1.828,2.077  l1.287,5.771l-1.449,2.983l-1.455-2.983l1.279-5.733l0.01-0.038l-1.83-2.077l1.031-0.592l-0.219-0.035  c-1.438-0.241-2.75-0.92-3.793-1.949l-0.021-0.025h-0.322c-2.793,0-5.064,2.271-5.064,5.063v9.299h20.762v-9.299  C69.811,81.018,67.539,78.747,64.75,78.747z"/><path d="M82.119,79.984c3.432,0,6.225-2.794,6.225-6.227s-2.793-6.226-6.225-6.226c-3.434,0-6.227,2.793-6.227,6.226  S78.686,79.984,82.119,79.984z"/><path d="M87.434,78.747h-0.32l-0.023,0.025c-1.039,1.029-2.35,1.704-3.791,1.949l-0.219,0.035l1.029,0.592l-1.828,2.077l1.287,5.771  l-1.449,2.983l-1.455-2.983l1.283-5.733l0.006-0.038l-1.83-2.077l1.031-0.592l-0.219-0.035c-1.438-0.241-2.75-0.92-3.793-1.949  l-0.021-0.025h-0.32c-2.795,0-5.066,2.271-5.066,5.063v9.299h20.764v-9.299C92.498,81.018,90.229,78.747,87.434,78.747z"/><path d="M94.873,10.514c-1.031-2.103-3.172-3.565-5.656-3.62c-0.049-0.003-0.1-0.003-0.146-0.003H32.906  c-3.563,0-6.463,2.901-6.463,6.465v15.629l0.127,0.026c0.051,0.009,0.098,0.022,0.148,0.035c1.172,0.254,2.301,0.67,3.357,1.233  l0.232,0.127V13.355c0-1.433,1.166-2.6,2.598-2.6H89.07c1.432,0,2.6,1.167,2.6,2.6v38.42c0,1.435-1.168,2.603-2.6,2.603h-46.26  l0.162,0.245c0.719,1.075,1.234,2.252,1.531,3.496l0.027,0.124H89.07c3.563,0,6.463-2.901,6.463-6.468v-38.42  C95.533,12.337,95.295,11.373,94.873,10.514z"/><path d="M40.26,37.886l5.438-3.989c0.553,0.262,1.207,0.248,1.748-0.031l3.621,2.862c-0.008,0.058-0.01,0.115-0.01,0.172  c0,1.082,0.881,1.967,1.965,1.967c1.082,0,1.963-0.885,1.963-1.967c0-0.165-0.018-0.33-0.063-0.492l6.338-8.352  c0.703,0.172,1.416-0.055,1.893-0.561l4.994,2.529c0.141,0.955,0.967,1.674,1.939,1.674c1.082,0,1.967-0.881,1.967-1.966  c0-0.083-0.01-0.172-0.021-0.271l4.383-4.199c0.217,0.079,0.443,0.121,0.668,0.121c1.021,0,1.869-0.783,1.957-1.791l8.516-1.648  l-0.352-1.832l-8.949,1.73c-0.342-0.255-0.744-0.388-1.172-0.388c-1.08,0-1.963,0.881-1.963,1.962c0,0.149,0.016,0.3,0.055,0.452  l-4.26,4.082c-0.264-0.122-0.541-0.185-0.828-0.185c-0.479,0-0.938,0.175-1.297,0.492l-5.166-2.614  c-0.229-0.862-1.002-1.46-1.896-1.46c-1.084,0-1.967,0.881-1.967,1.963c0,0.22,0.039,0.438,0.113,0.648l-6.25,8.233  c-0.512-0.166-1.063-0.111-1.527,0.137l-3.604-2.854c0.006-0.066,0.01-0.13,0.01-0.19c0-1.084-0.881-1.965-1.963-1.965  c-1.084,0-1.967,0.881-1.967,1.965c0,0.086,0.008,0.176,0.02,0.271l-5.436,3.989L40.26,37.886z"/><path d="M82.682,24.467c-0.391,0-0.709,0.318-0.709,0.713v19.109c0,0.393,0.318,0.71,0.709,0.71h2.66  c0.391,0,0.709-0.317,0.709-0.71V25.18c0-0.395-0.318-0.713-0.709-0.713H82.682z"/><path d="M78.514,29.644h-2.66c-0.391,0-0.709,0.318-0.709,0.709v13.937c0,0.393,0.318,0.71,0.709,0.71h2.66  c0.395,0,0.713-0.317,0.713-0.71V30.353C79.227,29.962,78.908,29.644,78.514,29.644z"/><path d="M69.031,32.697c-0.395,0-0.713,0.318-0.713,0.71v10.882c0,0.393,0.318,0.71,0.713,0.71h2.658  c0.393,0,0.711-0.317,0.711-0.71V33.407c0-0.392-0.318-0.71-0.711-0.71H69.031z"/><path d="M62.203,35.31c-0.391,0-0.709,0.317-0.709,0.709v8.271c0,0.393,0.318,0.71,0.709,0.71h2.66c0.391,0,0.709-0.317,0.709-0.71  v-8.271c0-0.392-0.318-0.709-0.709-0.709H62.203z"/><path d="M55.377,38.074c-0.393,0-0.709,0.317-0.709,0.712v5.503c0,0.393,0.316,0.71,0.709,0.71h2.662  c0.393,0,0.711-0.317,0.711-0.71v-5.503c0-0.395-0.318-0.712-0.711-0.712H55.377z"/><path d="M48.553,41.023c-0.395,0-0.713,0.317-0.713,0.709v2.557c0,0.393,0.318,0.71,0.713,0.71h2.66c0.391,0,0.709-0.317,0.709-0.71  v-2.557c0-0.392-0.318-0.709-0.709-0.709H48.553z"/><path d="M41.727,39.741c-0.393,0-0.711,0.32-0.711,0.712v3.836c0,0.393,0.318,0.71,0.711,0.71h2.658c0.393,0,0.713-0.317,0.713-0.71  v-3.836c0-0.392-0.32-0.712-0.713-0.712H41.727z"/>
</svg>